<svg width="836" height="637" viewBox="0 0 836 637" fill="none" xmlns="http://www.w3.org/2000/svg">
<path d="M658.341 539.251C604.678 587.749 533.406 614.468 457.5 614.468V595.203C527.66 595.203 593.649 570.494 643.234 525.682C692.818 480.87 720.159 421.232 720.159 357.826V279.342C720.159 215.935 692.818 156.297 643.234 111.485C593.649 66.6735 527.66 41.9641 457.5 41.9641V22.6154C509.402 22.6154 559.079 35.0957 602.546 58.465C603.751 59.135 605.049 59.8051 606.254 60.4752C624.975 70.8615 642.399 83.3419 658.341 97.7487C712.003 146.246 741.568 210.658 741.568 279.258V357.742C741.568 426.342 712.003 490.754 658.341 539.251ZM676.043 81.8342C662.975 70.0239 648.98 59.3863 634.058 50.0051C632.853 49.1675 631.556 48.4137 630.258 47.6598C579.654 16.6684 520.06 0 457.5 0V19.265C510.884 19.265 561.952 32.3316 606.439 56.706C607.644 57.3761 608.941 58.0462 610.146 58.8C628.312 69.1026 645.365 81.4154 660.936 95.4034C715.247 144.487 745.183 209.821 745.183 279.258V357.742C745.183 427.18 715.247 492.513 660.936 541.597C606.624 590.68 534.333 617.735 457.5 617.735V637C540.079 637 617.653 607.935 676.043 555.166C711.632 523.002 737.491 484.388 752.227 442.173C752.598 441.084 752.968 439.911 753.339 438.822C762.051 412.856 766.5 385.55 766.5 357.658V279.174C766.592 204.711 734.432 134.603 676.043 81.8342Z" fill="url(#paint0_linear_3765_1730)"/>
<path d="M174.192 19.2734C108.903 19.2734 120.5 19.5003 -0.554688 19.4978L-2 22.6259C102.055 22.6259 108.736 22.6259 174.192 22.6259H415.905V19.2734H174.192ZM-0.554688 614.838V618.191H415.821V614.838H-0.554688Z" fill="url(#paint1_linear_3765_1730)"/>
<path d="M745.5 279.271V357.813C745.5 427.302 715.541 492.684 661.187 541.805C606.833 590.925 534.486 618 457.593 618V614.647C533.558 614.647 604.885 587.908 658.59 539.374C712.294 490.84 741.883 426.38 741.883 357.729V279.187C741.883 210.62 712.294 146.076 658.59 97.5423C642.636 83.1247 625.199 70.7189 606.462 60.241C605.257 59.5704 603.958 58.8998 602.752 58.2292C559.251 34.8426 509.442 22.3529 457.5 22.3529V19C510.926 19 562.033 32.0764 606.555 56.4689C607.761 57.1395 609.059 57.8101 610.265 58.5645C628.445 68.8748 645.512 81.1968 661.094 95.1952C715.541 144.399 745.5 209.698 745.5 279.271Z" fill="#CCCCCC"/>
<path d="M826.501 157.905L823.4 159.246C813.426 136.449 799.346 115.832 781.494 97.9797C743.779 60.1807 693.576 39.3954 640.188 39.3954C617.894 39.3954 596.103 42.9993 575.569 50.0395C574.48 49.2014 573.306 48.4471 572.133 47.6928C593.672 40.0659 616.637 36.043 640.188 36.043C694.498 36.043 745.539 57.1635 783.925 95.5492C802.028 113.736 816.36 134.689 826.501 157.905Z" fill="url(#paint2_linear_3765_1730)"/>
<path d="M824.987 439.168V442.52H682.34C682.675 441.431 683.01 440.258 683.346 439.168H824.987Z" fill="url(#paint3_linear_3765_1730)"/>
<path d="M835.048 239.285H831.695V424.09H835.048V239.285Z" fill="url(#paint4_linear_3765_1730)"/>
<defs>
<linearGradient id="paint0_linear_3765_1730" x1="455.543" y1="228.99" x2="769.964" y2="231.677" gradientUnits="userSpaceOnUse">
<stop stop-color="#351EE0"/>
<stop offset="1" stop-color="#3F74EF"/>
</linearGradient>
<linearGradient id="paint1_linear_3765_1730" x1="-4.64694" y1="234.573" x2="420.557" y2="239.8" gradientUnits="userSpaceOnUse">
<stop stop-color="#351EE0"/>
<stop offset="1" stop-color="#3F74EF"/>
</linearGradient>
<linearGradient id="paint2_linear_3765_1730" x1="570.522" y1="80.3321" x2="829.03" y2="89.736" gradientUnits="userSpaceOnUse">
<stop stop-color="#351EE0"/>
<stop offset="1" stop-color="#3F74EF"/>
</linearGradient>
<linearGradient id="paint3_linear_3765_1730" x1="681.436" y1="440.373" x2="774.366" y2="510.043" gradientUnits="userSpaceOnUse">
<stop stop-color="#351EE0"/>
<stop offset="1" stop-color="#3F74EF"/>
</linearGradient>
<linearGradient id="paint4_linear_3765_1730" x1="831.674" y1="305.719" x2="835.086" y2="305.72" gradientUnits="userSpaceOnUse">
<stop stop-color="#351EE0"/>
<stop offset="1" stop-color="#3F74EF"/>
</linearGradient>
</defs>
</svg>
