<svg width="28" height="28" viewBox="0 0 28 28" fill="none" xmlns="http://www.w3.org/2000/svg">
<path d="M20.1358 14.4375C19.8697 14.4375 19.6552 14.2222 19.6552 13.9561C19.6584 10.8653 17.1625 8.34477 14.0431 8.34477C13.7778 8.34477 13.5625 8.1295 13.5625 7.86419C13.5625 7.60444 13.7698 7.38281 14.0494 7.38281C17.6598 7.38281 20.6203 10.3044 20.6171 13.9569C20.6164 14.223 20.4011 14.4375 20.1358 14.4375Z" fill="white"/>
<path d="M23.3767 14.4331C23.1106 14.4331 22.8961 14.2179 22.8961 13.9517C22.8993 9.07362 18.9577 5.09868 14.0431 5.09868C13.7778 5.09868 13.5625 4.88341 13.5625 4.6181C13.5625 4.35914 13.7698 4.13672 14.0486 4.13672C19.4892 4.13672 23.8613 8.55094 23.8581 13.9525C23.8573 14.2186 23.642 14.4331 23.3767 14.4331Z" fill="white"/>
<path d="M26.3961 14.4352C26.1308 14.4352 25.9155 14.22 25.9155 13.9547C25.9187 7.40522 20.6219 2.08226 14.0431 2.08226C13.7778 2.08226 13.5625 1.86699 13.5625 1.60168C13.5625 1.34272 13.769 1.12109 14.0478 1.12109C21.1343 1.12109 26.8798 6.86268 26.8767 13.9555C26.8767 14.22 26.6614 14.4352 26.3961 14.4352Z" fill="white"/>
<path d="M21.0678 28C20.6635 28 19.4695 27.9198 17.6116 27.1238C14.114 25.6257 10.7134 22.6826 8.0674 19.9325C6.14745 18.0849 4.53015 16.2547 3.26077 14.4936C2.23685 13.0733 1.43455 11.6919 0.876122 10.3884C-0.0421503 8.24602 -0.00719877 6.98618 0.00312783 6.80268C0.0595269 3.99782 1.52908 1.79667 3.8891 0.369217C5.04568 -0.330608 6.55019 -0.00810086 7.31356 1.10399L10.2352 5.35776C10.5934 5.87964 10.7444 6.51274 10.6602 7.14028C10.576 7.76782 10.263 8.33817 9.77923 8.74726L8.84587 9.53605C8.84666 9.53923 8.84666 9.5432 8.84746 9.54638C9.31613 12.5101 15.4898 18.6838 18.4536 19.1525C18.4567 19.1533 18.4607 19.1533 18.4639 19.1541L19.2527 18.2207C20.0963 17.2214 21.5619 17.0236 22.6422 17.7648L26.896 20.6864C28.008 21.4498 28.3306 22.9543 27.6307 24.1108C26.0484 26.7235 23.678 28 21.0678 28ZM0.962707 6.86305C0.959529 6.91469 0.907102 8.06253 1.80393 10.1128C2.6523 12.0518 4.54445 15.2101 8.74022 19.2462C8.91577 19.3924 13.2251 24.1561 17.8872 26.196C18.8658 26.6242 20.0923 27.0357 21.1679 27.0357C24.1523 26.9801 25.8824 25.1435 26.8086 23.6136C27.2447 22.8923 27.0445 21.955 26.3518 21.4792L22.0981 18.5575C21.4229 18.0936 20.5157 18.216 19.9875 18.8411L19.0303 19.9739C18.9286 20.0946 18.7737 20.1574 18.6172 20.1423C18.5139 20.1319 18.4083 20.1184 18.3034 20.1025C15.6455 19.6807 11.3854 15.7821 9.30421 12.7246C8.50271 11.5481 8.02927 10.529 7.89741 9.69731C7.88073 9.59245 7.86722 9.4876 7.85769 9.38354C7.8426 9.22626 7.90535 9.07215 8.0261 8.97047L9.15884 8.01328C9.784 7.48503 9.90633 6.57788 9.44243 5.90268L6.52159 1.64813C6.04577 0.95545 5.10844 0.755273 4.38716 1.19137C2.85644 2.11759 1.02069 3.84769 0.96509 6.83207C0.964295 6.84478 0.964295 6.85114 0.962707 6.86305Z" fill="white"/>
</svg>
