<svg width="28" height="28" viewBox="0 0 28 28" fill="none" xmlns="http://www.w3.org/2000/svg">
<path d="M27.9983 12.2843C27.9984 12.1727 27.9649 12.06 27.8942 11.9627C27.8697 11.9291 27.8418 11.8994 27.8118 11.8731C27.8119 11.873 27.812 11.873 27.8121 11.8729L25.9249 10.2212C26.3315 9.89377 26.5923 9.39231 26.5923 8.8308V7.93341C26.5923 5.52114 24.6298 3.55859 22.2175 3.55859C19.8052 3.55859 17.8427 5.52114 17.8427 7.93341C17.8427 10.3457 19.8052 12.3082 22.2175 12.3082C22.5195 12.3082 22.7644 12.0634 22.7644 11.7614C22.7644 11.4594 22.5195 11.2145 22.2175 11.2145C20.4083 11.2145 18.9364 9.74262 18.9364 7.93341C18.9364 6.12421 20.4083 4.6523 22.2175 4.6523C24.0267 4.6523 25.4986 6.12421 25.4986 7.93341V8.8308C25.4986 9.21195 25.1886 9.52202 24.8074 9.52202C24.4262 9.52202 24.1161 9.21195 24.1161 8.8308V8.07516V6.50296C24.1161 6.35257 24.0542 6.20886 23.945 6.10556C23.4759 5.66212 22.8624 5.41789 22.2175 5.41789C20.8305 5.41789 19.702 6.54638 19.702 7.93341C19.702 9.32045 20.8305 10.4489 22.2175 10.4489C22.6868 10.4489 23.1392 10.319 23.5318 10.0776C23.8456 10.3986 24.2791 10.6017 24.7594 10.6145C24.7888 10.6658 24.8265 10.7134 24.8735 10.7545L26.5766 12.245L22.2022 15.4274V14.0018C22.2022 13.6998 21.9574 13.4549 21.6554 13.4549C21.3533 13.4549 21.1085 13.6998 21.1085 14.0018V16.2231L17.026 19.1931L14.3211 17.2253C14.1294 17.0858 13.8695 17.0858 13.6777 17.2253L10.9728 19.1931L1.44599 12.2622L4.55774 9.53897C4.78501 9.34008 4.80798 8.99458 4.60909 8.76731C4.41015 8.54004 4.0647 8.51707 3.83743 8.71596L0.201679 11.8603C0.20146 11.8605 0.201242 11.8607 0.201023 11.8609C0.078364 11.9612 0 12.1136 0 12.2844V27.4543C0 27.7563 0.244826 28.0011 0.546852 28.0011H27.452C27.754 28.0011 27.9988 27.7563 27.9988 27.4543V12.2844C27.9987 12.2844 27.9985 12.2843 27.9983 12.2843ZM23.0225 8.07521V8.83085V9.1051C22.7869 9.26757 22.5078 9.35523 22.2176 9.35523C21.4336 9.35523 20.7958 8.71738 20.7958 7.93341C20.7958 7.14945 21.4336 6.5116 22.2176 6.5116C22.5078 6.5116 22.7869 6.59926 23.0225 6.76173V8.07521ZM1.0937 13.3585L10.0433 19.8693L1.0937 26.3802V13.3585ZM2.2281 26.9074L13.9994 18.3437L25.7708 26.9074H2.2281ZM26.9051 26.3802L17.9556 19.8693L26.9051 13.3585V26.3802Z" fill="white"/>
<path d="M18.4481 3.67686L14.3577 0.133259C14.1499 -0.0468192 13.8454 -0.0417881 13.6433 0.132603C13.6431 0.132439 13.643 0.13233 13.6428 0.132166L11.6742 1.82741C11.4453 2.02449 11.4196 2.36978 11.6166 2.59863C11.7248 2.72425 11.8775 2.78867 12.0313 2.78867C12.1576 2.78867 12.2846 2.74514 12.3879 2.65622L13.9987 1.26913L16.6384 3.55595H6.34373C6.0417 3.55595 5.79688 3.80078 5.79688 4.10281V11.9758C5.79688 12.2778 6.0417 12.5226 6.34373 12.5226C6.64575 12.5226 6.89058 12.2778 6.89058 11.9758V4.64971H18.0901C18.0883 4.64517 18.0869 4.64124 18.0851 4.63681C18.0867 4.63681 18.0883 4.63703 18.0898 4.63703C18.2429 4.63703 18.3952 4.57304 18.5034 4.44825C18.7011 4.22 18.6764 3.8746 18.4481 3.67686Z" fill="white"/>
<path d="M14.0746 9.07812H8.6074C8.30537 9.07812 8.06055 9.32295 8.06055 9.62498C8.06055 9.927 8.30537 10.1718 8.6074 10.1718H14.0746C14.3766 10.1718 14.6215 9.927 14.6215 9.62498C14.6215 9.32295 14.3766 9.07812 14.0746 9.07812Z" fill="white"/>
<path d="M13.9984 6.34375H8.6074C8.30537 6.34375 8.06055 6.58858 8.06055 6.8906C8.06055 7.19263 8.30537 7.43745 8.6074 7.43745H13.9984C14.3005 7.43745 14.5453 7.19263 14.5453 6.8906C14.5453 6.58858 14.3005 6.34375 13.9984 6.34375Z" fill="white"/>
<path d="M6.73035 13.793C6.62864 13.6913 6.48755 13.6328 6.34373 13.6328C6.19991 13.6328 6.05882 13.6913 5.9571 13.793C5.85539 13.8948 5.79688 14.0358 5.79688 14.1797C5.79688 14.324 5.85539 14.4646 5.9571 14.5663C6.05882 14.6686 6.19991 14.7265 6.34373 14.7265C6.48755 14.7265 6.62864 14.6686 6.73035 14.5663C6.83207 14.4646 6.89058 14.324 6.89058 14.1797C6.89058 14.0358 6.83207 13.8948 6.73035 13.793Z" fill="white"/>
<path d="M17.6962 11.7734H16.625C16.323 11.7734 16.0781 12.0183 16.0781 12.3203C16.0781 12.6223 16.323 12.8671 16.625 12.8671H17.6962C17.9982 12.8671 18.2431 12.6223 18.2431 12.3203C18.2431 12.0183 17.9982 11.7734 17.6962 11.7734Z" fill="white"/>
<path d="M14.2072 11.7734H14.2011C13.8991 11.7734 13.6543 12.0183 13.6543 12.3203C13.6543 12.6223 13.8991 12.8671 14.2011 12.8671H14.2072C14.5091 12.8671 14.754 12.6223 14.754 12.3203C14.754 12.0183 14.5092 11.7734 14.2072 11.7734Z" fill="white"/>
<path d="M11.5931 11.7734H8.60545C8.30342 11.7734 8.05859 12.0183 8.05859 12.3203C8.05859 12.6223 8.30342 12.8671 8.60545 12.8671H11.5931C11.8951 12.8671 12.1399 12.6223 12.1399 12.3203C12.1399 12.0183 11.8951 11.7734 11.5931 11.7734Z" fill="white"/>
</svg>
