<svg width="14" height="14" viewBox="0 0 14 14" fill="none" xmlns="http://www.w3.org/2000/svg">
<path d="M3.85052 2.80038C3.64282 2.80038 3.43979 2.86197 3.26709 2.97736C3.0944 3.09275 2.9598 3.25676 2.88032 3.44865C2.80083 3.64053 2.78004 3.85168 2.82056 4.05539C2.86108 4.25909 2.96109 4.44621 3.10796 4.59308C3.25482 4.73994 3.44194 4.83996 3.64564 4.88048C3.84935 4.921 4.0605 4.9002 4.25239 4.82072C4.44427 4.74123 4.60828 4.60664 4.72367 4.43394C4.83907 4.26125 4.90065 4.05821 4.90065 3.85052C4.90065 3.572 4.79002 3.3049 4.59308 3.10796C4.39614 2.91102 4.12903 2.80038 3.85052 2.80038ZM13.3858 6.09781L7.49799 0.203038C7.43258 0.138153 7.355 0.0868184 7.2697 0.0519786C7.1844 0.0171389 7.09307 -0.000520993 7.00093 1.17015e-05H0.700103C0.514428 1.17015e-05 0.336356 0.0737711 0.205064 0.205064C0.0737711 0.336356 1.17015e-05 0.514428 1.17015e-05 0.700103V7.00093C-0.000520993 7.09307 0.0171389 7.1844 0.0519786 7.2697C0.0868184 7.355 0.138153 7.43258 0.203038 7.49799L6.09781 13.3858C6.49161 13.7791 7.02543 14 7.58201 14C8.13858 14 8.6724 13.7791 9.0662 13.3858L13.3858 9.1012C13.7791 8.7074 14 8.17359 14 7.61701C14 7.06044 13.7791 6.52662 13.3858 6.13282V6.09781ZM12.3986 8.07207L8.07207 12.3916C7.9409 12.522 7.76346 12.5952 7.57851 12.5952C7.39355 12.5952 7.21611 12.522 7.08494 12.3916L1.4002 6.71389V1.4002H6.71389L12.3986 7.08494C12.4635 7.15036 12.5149 7.22794 12.5497 7.31324C12.5845 7.39853 12.6022 7.48987 12.6017 7.58201C12.6009 7.76567 12.528 7.94167 12.3986 8.07207Z" fill="url(#paint0_linear_3605_401)"/>
<defs>
<linearGradient id="paint0_linear_3605_401" x1="-0.0886736" y1="5.03274" x2="14.1536" y2="5.28368" gradientUnits="userSpaceOnUse">
<stop stop-color="#351EE0"/>
<stop offset="1" stop-color="#3F74EF"/>
</linearGradient>
</defs>
</svg>
