<svg width="14" height="14" viewBox="0 0 14 14" fill="none" xmlns="http://www.w3.org/2000/svg">
<path d="M11.8998 4.19994H11.1998V2.09997C11.1998 1.54302 10.9786 1.00889 10.5848 0.615067C10.191 0.221246 9.65682 0 9.09987 0H2.09997C1.54302 0 1.00889 0.221246 0.615067 0.615067C0.221246 1.00889 0 1.54302 0 2.09997V10.4999C0.000689827 10.6381 0.0422709 10.7729 0.119503 10.8876C0.196735 11.0022 0.306162 11.0913 0.433994 11.1438C0.517068 11.183 0.608168 11.2022 0.69999 11.1998C0.792114 11.2004 0.883436 11.1827 0.968721 11.1479C1.05401 11.1131 1.13158 11.0617 1.19698 10.9968L3.16396 9.02287H4.19994V10.0309C4.19994 10.5878 4.42119 11.1219 4.81501 11.5158C5.20883 11.9096 5.74297 12.1308 6.29991 12.1308H11.1438L12.8028 13.7968C12.8682 13.8617 12.9458 13.913 13.0311 13.9478C13.1164 13.9827 13.2077 14.0003 13.2998 13.9998C13.3916 14.0022 13.4827 13.983 13.5658 13.9438C13.6936 13.8913 13.8031 13.8021 13.8803 13.6875C13.9575 13.5729 13.9991 13.438 13.9998 13.2998V6.29991C13.9998 5.74297 13.7786 5.20883 13.3847 4.81501C12.9909 4.42119 12.4568 4.19994 11.8998 4.19994ZM4.19994 6.29991V7.62289H2.87696C2.78484 7.62236 2.69351 7.64002 2.60823 7.67485C2.52294 7.70969 2.44537 7.76102 2.37997 7.82589L1.39998 8.81288V2.09997C1.39998 1.91432 1.47373 1.73628 1.605 1.605C1.73628 1.47373 1.91432 1.39998 2.09997 1.39998H9.09987C9.28552 1.39998 9.46357 1.47373 9.59484 1.605C9.72612 1.73628 9.79986 1.91432 9.79986 2.09997V4.19994H6.29991C5.74297 4.19994 5.20883 4.42119 4.81501 4.81501C4.42119 5.20883 4.19994 5.74297 4.19994 6.29991ZM12.5998 11.6128L11.8998 10.9128C11.835 10.8467 11.7577 10.7941 11.6724 10.758C11.5871 10.722 11.4955 10.7032 11.4028 10.7029H6.29991C6.11426 10.7029 5.93622 10.6291 5.80494 10.4978C5.67367 10.3666 5.59992 10.1885 5.59992 10.0029V6.29991C5.59992 6.11426 5.67367 5.93622 5.80494 5.80494C5.93622 5.67367 6.11426 5.59992 6.29991 5.59992H11.8998C12.0855 5.59992 12.2635 5.67367 12.3948 5.80494C12.5261 5.93622 12.5998 6.11426 12.5998 6.29991V11.6128Z" fill="url(#paint0_linear_3605_399)"/>
<defs>
<linearGradient id="paint0_linear_3605_399" x1="-0.0886723" y1="5.03274" x2="14.1534" y2="5.28367" gradientUnits="userSpaceOnUse">
<stop stop-color="#351EE0"/>
<stop offset="1" stop-color="#3F74EF"/>
</linearGradient>
</defs>
</svg>
