<svg width="20" height="20" viewBox="0 0 20 20" fill="none" xmlns="http://www.w3.org/2000/svg">
<path d="M8.41732 16.7487C10.3402 16.7487 12.1079 16.0872 13.5184 14.9904L18.0975 19.5695L19.5704 18.0966L14.9913 13.5174C16.0892 12.106 16.7507 10.3383 16.7507 8.41536C16.7507 3.82057 13.0121 0.0820312 8.41732 0.0820312C3.82253 0.0820312 0.0839844 3.82057 0.0839844 8.41536C0.0839844 13.0102 3.82253 16.7487 8.41732 16.7487ZM8.41732 2.16536C11.8642 2.16536 14.6673 4.96849 14.6673 8.41536C14.6673 11.8622 11.8642 14.6654 8.41732 14.6654C4.97044 14.6654 2.16732 11.8622 2.16732 8.41536C2.16732 4.96849 4.97044 2.16536 8.41732 2.16536Z" fill="#05092B"/>
</svg>
